<svg width="100" height="100" viewBox="0 0 100 100" fill="none" xmlns="http://www.w3.org/2000/svg">
<rect width="100" height="100" fill="url(#paint0_linear)"/>
<path fill-rule="evenodd" clip-rule="evenodd" d="M43.5 41.3333C42.3034 41.3333 41.3333 42.3034 41.3333 43.5V56.5C41.3333 57.6966 42.3034 58.6667 43.5 58.6667H56.5C57.6966 58.6667 58.6667 57.6966 58.6667 56.5V43.5C58.6667 42.3034 57.6966 41.3333 56.5 41.3333H43.5ZM45.6667 54.3333V45.6667H54.3333V54.3333H45.6667Z" fill="white"/>
<path fill-rule="evenodd" clip-rule="evenodd" d="M43.5 24C44.6966 24 45.6667 24.97 45.6667 26.1667V30.5H54.3333V26.1667C54.3333 24.97 55.3034 24 56.5 24C57.6966 24 58.6667 24.97 58.6667 26.1667V30.5H63C66.5899 30.5 69.5 33.4101 69.5 37V41.3333H73.8333C75.03 41.3333 76 42.3034 76 43.5C76 44.6966 75.03 45.6667 73.8333 45.6667H69.5V52.1667H73.8333C75.03 52.1667 76 53.1367 76 54.3333C76 55.53 75.03 56.5 73.8333 56.5H69.5V63C69.5 66.5899 66.5899 69.5 63 69.5H58.6667V73.8333C58.6667 75.03 57.6966 76 56.5 76C55.3034 76 54.3333 75.03 54.3333 73.8333V69.5H45.6667V73.8333C45.6667 75.03 44.6966 76 43.5 76C42.3034 76 41.3333 75.03 41.3333 73.8333V69.5H37C33.4101 69.5 30.5 66.5899 30.5 63V56.5H26.1667C24.97 56.5 24 55.53 24 54.3333C24 53.1367 24.97 52.1667 26.1667 52.1667H30.5V45.6667H26.1667C24.97 45.6667 24 44.6966 24 43.5C24 42.3034 24.97 41.3333 26.1667 41.3333H30.5V37C30.5 33.4101 33.4101 30.5 37 30.5H41.3333V26.1667C41.3333 24.97 42.3034 24 43.5 24ZM34.8333 63C34.8333 64.1966 35.8034 65.1667 37 65.1667H63C64.1966 65.1667 65.1667 64.1966 65.1667 63V37C65.1667 35.8034 64.1966 34.8333 63 34.8333H37C35.8034 34.8333 34.8333 35.8034 34.8333 37V63Z" fill="white"/>
<defs>
<linearGradient id="paint0_linear" x1="50" y1="0" x2="50" y2="100" gradientUnits="userSpaceOnUse">
<stop stop-color="#023666"/>
<stop offset="1" stop-color="#443485"/>
</linearGradient>
</defs>
</svg>
