<svg width="100" height="100" viewBox="0 0 100 100" fill="none" xmlns="http://www.w3.org/2000/svg">
<rect width="100" height="100" fill="url(#paint0_linear)"/>
<g clip-path="url(#clip0)">
<path d="M69.105 55.9114C68.1523 53.8415 66.3813 52.162 63.7919 50.8736C67.6931 49.8991 69.9245 47.2316 70.4877 42.871C70.7038 41.2925 70.5859 39.854 70.1333 38.5533C69.6804 37.2522 68.9261 36.1161 67.8668 35.1439C66.8087 34.171 65.6058 33.3387 64.2615 32.646C62.9168 31.9531 61.3377 31.3109 59.525 30.7199L61.5691 21.8661L56.1589 20.617L54.1716 29.2249C53.2348 29.0086 51.8007 28.7021 49.8694 28.3057L51.8729 19.6275L46.462 18.3783L44.4179 27.2322C43.6393 27.0772 42.5007 26.8269 41.0017 26.4808L33.5616 24.7258L32.2313 30.4879L36.131 31.3882C37.9111 31.7992 38.7696 32.8364 38.7063 34.4992L36.3783 44.5829C36.6129 44.6371 36.7973 44.6923 36.9325 44.7482L36.3702 44.6184L33.1095 58.7417C32.6466 59.8928 31.8295 60.3337 30.6582 60.0633L26.7588 59.1631L24.1851 65.3413L31.212 66.9636C31.6571 67.0663 32.2995 67.2209 33.1406 67.4262C33.9809 67.6327 34.6117 67.7845 35.0335 67.8819L32.9651 76.8409L38.3769 78.0904L40.4209 69.2366C41.3989 69.4877 42.8249 69.829 44.6988 70.2616L42.6629 79.0799L48.0732 80.3289L50.1415 71.3699C52.0842 71.7198 53.8284 71.9385 55.3748 72.0232C56.9219 72.108 58.4383 72.0332 59.9237 71.796C61.4088 71.5594 62.7029 71.1361 63.8055 70.5271C64.9085 69.919 65.9039 69.0505 66.7943 67.9235C67.6827 66.7962 68.4018 65.4203 68.9492 63.7946C70.0065 60.6103 70.0578 57.9821 69.105 55.9114ZM48.5148 34.6532C48.6788 34.6911 49.1428 34.792 49.9067 34.9559C50.6711 35.1197 51.3059 35.2541 51.8122 35.3585C52.3186 35.4632 52.9911 35.6493 53.8301 35.9171C54.6688 36.1847 55.3673 36.4448 55.9257 36.6969C56.4841 36.9489 57.0842 37.2911 57.724 37.7226C58.3652 38.1541 58.8512 38.6118 59.1831 39.0955C59.5159 39.5793 59.7594 40.1539 59.9137 40.8187C60.069 41.4835 60.0572 42.2024 59.8788 42.9752C59.7274 43.6311 59.4843 44.2043 59.1493 44.6947C58.8147 45.1848 58.3936 45.5626 57.8887 45.8284C57.3836 46.0943 56.8764 46.3106 56.3691 46.477C55.8624 46.6434 55.2438 46.729 54.5153 46.7333C53.7868 46.7379 53.1539 46.7275 52.6173 46.7022C52.0803 46.677 51.4214 46.5929 50.6403 46.4494C49.8591 46.3058 49.2678 46.1945 48.8671 46.1141C48.4661 46.0337 47.9217 45.9081 47.2332 45.7369C46.5445 45.5657 46.1424 45.4664 46.025 45.4393L48.5152 34.6532L48.5148 34.6531L48.5148 34.6532ZM57.7655 61.9902C57.4179 62.4777 57.0233 62.8803 56.5802 63.1977C56.1367 63.514 55.5927 63.7588 54.9489 63.9305C54.305 64.103 53.6915 64.22 53.11 64.2831C52.5276 64.3469 51.8397 64.3598 51.0466 64.3252C50.2519 64.2899 49.562 64.2348 48.9739 64.1612C48.3868 64.0874 47.6912 63.976 46.8863 63.8275C46.0823 63.6782 45.4571 63.5526 45.0122 63.4499C44.5671 63.3472 44.0064 63.2109 43.3297 63.0427C42.6526 62.8748 42.221 62.769 42.0335 62.7257L44.7752 50.8498C44.9624 50.8931 45.5214 51.0101 46.4523 51.1998C47.3833 51.3899 48.1408 51.5532 48.7264 51.6884C49.3119 51.8236 50.1123 52.0448 51.127 52.3536C52.1409 52.6612 52.9834 52.9662 53.6542 53.2691C54.3241 53.5721 55.0407 53.9654 55.8052 54.4506C56.5689 54.9352 57.1602 55.4478 57.5783 55.9884C57.9962 56.5298 58.3051 57.1676 58.5048 57.9047C58.7055 58.6417 58.708 59.4319 58.5133 60.2753C58.3616 60.9318 58.1128 61.5025 57.7655 61.9902Z" fill="black" fill-opacity="0.59"/>
</g>
<defs>
<linearGradient id="paint0_linear" x1="0" y1="0" x2="100" y2="100" gradientUnits="userSpaceOnUse">
<stop stop-color="#FFBE40"/>
<stop offset="1" stop-color="#FF9C40"/>
</linearGradient>
<clipPath id="clip0">
<rect width="60" height="60" fill="white" transform="translate(27.4971 14) rotate(13)"/>
</clipPath>
</defs>
</svg>
