<svg width="66" height="66" fill="none" xmlns="http://www.w3.org/2000/svg"><rect width="66" height="66" rx="12" fill="url(#a)"/><g clip-path="url(#b)"><path d="M45.191 28.468a.825.825 0 0 0-.718-.418H33.666l1.812-13.844a.83.83 0 0 0-1.52-.54L20.813 36.694a.824.824 0 0 0 .703 1.257h10.646l-1.436 13.865a.83.83 0 0 0 1.528.508L45.18 29.3a.824.824 0 0 0 .01-.83z" fill="#fff"/></g><defs><linearGradient id="a" x1="3.3" y1="2.64" x2="63.03" y2="66" gradientUnits="userSpaceOnUse"><stop stop-color="#FF6E40"/><stop offset="1" stop-color="#FFE458"/></linearGradient><clipPath id="b"><path fill="#fff" d="M13.2 13.2h39.6v39.6H13.2z"/></clipPath></defs></svg>