<svg width="66" height="66" fill="none" xmlns="http://www.w3.org/2000/svg"><rect width="66" height="66" rx="12" fill="url(#a)"/><g clip-path="url(#b)" fill="#fff"><path d="M29.464 23.807v-8.319l-1.414 2.829v5.49h-1.414v-4.95H15.32v11.315h11.315v-4.95h1.414v2.325l1.033-2.326h6.745v-1.414h-6.364z"/><path d="m17.88 13.2-2.122 4.243h11.148l2.121-4.243H17.88zm9.026 26.871 2.121-4.242h-7.341v-4.95H20.27v4.95h-2.39l-2.122 4.242h4.513v1.415h-4.95V52.8h11.315V41.486h-4.95V40.07h5.22z"/><path d="M36.536 41.486v4.95h-7.072v-8.32l-1.414 2.83v5.49h-.707v1.414h.707v2.325l1.033-2.325h7.453v4.95H47.85V41.486H36.536z"/><path d="M42.9 35.829V30.17h4.95V18.857H36.536v11.314h4.95v5.658h-2.392l-2.121 4.242h4.513v.708H42.9v-.708h5.22l2.122-4.242H42.9zm6.364 5.117v9.23l1.414-3.183v-8.876l-1.414 2.829zm0-22.629v9.23l1.414-3.183v-8.876l-1.414 2.829zM39.094 13.2l-2.121 4.243H48.12l2.122-4.243H39.094z"/></g><defs><linearGradient id="a" x1="0" y1="0" x2="66" y2="66" gradientUnits="userSpaceOnUse"><stop stop-color="#40FFDD"/><stop offset="1" stop-color="#7140FF"/></linearGradient><clipPath id="b"><path fill="#fff" d="M13.2 13.2h39.6v39.6H13.2z"/></clipPath></defs></svg>