<svg width="66" height="66" fill="none" xmlns="http://www.w3.org/2000/svg"><rect width="66" height="66" rx="12" fill="url(#a)"/><g clip-path="url(#b)"><path d="M45.61 36.902c-.63-1.367-1.799-2.475-3.508-3.325 2.575-.643 4.048-2.404 4.42-5.282.142-1.042.064-1.991-.234-2.85a5.451 5.451 0 0 0-1.496-2.25 10.809 10.809 0 0 0-2.38-1.649c-.887-.457-1.93-.88-3.126-1.27l1.35-5.844-3.571-.825-1.312 5.681a131.23 131.23 0 0 0-2.84-.606l1.323-5.728-3.571-.824-1.35 5.843a82.298 82.298 0 0 1-2.254-.496l-4.91-1.158-.879 3.803 2.574.594c1.175.272 1.742.956 1.7 2.054l-1.537 6.655c.155.036.277.072.366.109l-.371-.086-2.152 9.322c-.305.76-.845 1.05-1.618.872l-2.573-.594-1.7 4.077 4.639 1.071c.293.068.717.17 1.272.305.555.137.971.237 1.25.301l-1.365 5.913 3.571.825 1.35-5.844c.645.166 1.586.391 2.823.677l-1.344 5.82 3.571.824 1.365-5.913c1.282.231 2.433.376 3.454.431a14.09 14.09 0 0 0 3.002-.15c.98-.156 1.835-.435 2.562-.837.728-.401 1.385-.975 1.973-1.718.586-.744 1.06-1.652 1.422-2.725.698-2.102.732-3.837.103-5.203zm-13.59-14.03.918.199c.505.108.924.197 1.258.266.334.069.778.192 1.332.368a13.37 13.37 0 0 1 1.383.515c.368.166.764.392 1.187.677.423.285.744.587.963.906.22.32.38.699.482 1.137.102.44.095.914-.023 1.424-.1.433-.26.81-.482 1.135-.22.323-.498.572-.832.748a6.52 6.52 0 0 1-1.003.428c-.334.11-.742.166-1.223.17-.481.002-.899-.005-1.253-.021-.354-.017-.79-.073-1.305-.167a82.17 82.17 0 0 1-1.17-.222 25.568 25.568 0 0 1-1.078-.248c-.455-.114-.72-.18-.798-.197l1.644-7.119zm6.105 18.042c-.23.321-.49.587-.782.797-.293.208-.652.37-1.077.483a8.06 8.06 0 0 1-1.214.233 9.2 9.2 0 0 1-1.361.028c-.525-.024-.98-.06-1.369-.108a24.81 24.81 0 0 1-1.377-.22c-.53-.1-.944-.182-1.237-.25a71.105 71.105 0 0 1-1.11-.269c-.448-.11-.732-.18-.856-.209l1.81-7.838c.123.029.492.106 1.106.231a60.43 60.43 0 0 1 1.501.322c.387.09.915.236 1.585.44.669.203 1.225.404 1.667.604.443.2.916.46 1.42.78.504.32.894.658 1.17 1.014.276.358.48.779.612 1.265.132.487.134 1.008.005 1.565-.1.433-.264.81-.493 1.132z" fill="#fff"/></g><defs><linearGradient id="a" x1="0" y1="0" x2="66" y2="66" gradientUnits="userSpaceOnUse"><stop stop-color="#FFBE40"/><stop offset="1" stop-color="#FF9C40"/></linearGradient><clipPath id="b"><path transform="rotate(13 18.148 9.24)" fill="#fff" d="M18.148 9.24h39.6v39.6h-39.6z"/></clipPath></defs></svg>