<svg width="60" height="84" fill="none" xmlns="http://www.w3.org/2000/svg"><rect width="60" height="60" rx="30" fill="#EEF"/><path fill="#EEF" d="M29 60h1v24h-1z"/><path d="M39.347 24.843c1.334-.77 1.334-2.694 0-3.464l-8.317-4.802a2 2 0 0 0-2 0l-8.316 4.802c-1.333.77-1.333 2.694 0 3.464l8.316 4.802a2 2 0 0 0 2 0l8.317-4.802zm-8.423 17.693c0 1.54 1.667 2.502 3 1.732l8.32-4.804a2 2 0 0 0 1-1.732v-9.61c0-1.54-1.666-2.502-3-1.732l-8.32 4.803a2 2 0 0 0-1 1.732v9.61zM19.816 26.39c-1.333-.77-3 .192-3 1.732v9.61a2 2 0 0 0 1 1.732l8.32 4.804c1.334.77 3-.193 3-1.732v-9.61a2 2 0 0 0-1-1.733l-8.32-4.803z" fill="#5351FB"/></svg>