<svg width="21" height="21" fill="none" xmlns="http://www.w3.org/2000/svg"><g clip-path="url(#a)" fill="#858997"><path d="M10.55 18.402a2.453 2.453 0 1 0 0-4.907 2.453 2.453 0 0 0 0 4.907z"/><path d="M16.413 10.038c-.037-.038-.075-.07-.112-.105l-.11-.104c-.019-.02-.039-.034-.062-.052a8.004 8.004 0 0 0-11.055.26l-.355.356-.492.491a1.54 1.54 0 0 0 .004 2.175c.6.601 1.577.602 2.174.004l.848-.848a4.944 4.944 0 0 1 6.982 0l.612.592a1.526 1.526 0 0 0 2.603-1.083 1.5 1.5 0 0 0-.444-1.075l-.593-.611z"/><path opacity=".2" d="m20.593 7.005-.51-.51c-.002-.002-.003-.005-.007-.006l-.403-.404c-.07-.07-.147-.13-.228-.183-5.17-4.54-13.035-4.4-18.041.415-.024.023-.052.038-.076.062l-.92.921a1.4 1.4 0 0 0 .006 1.981 1.4 1.4 0 0 0 1.98.005l.921-.919c.006-.008.011-.015.017-.02 4.048-3.91 10.47-3.935 14.55-.08l.724.725a1.403 1.403 0 0 0 1.982-.005c.548-.55.55-1.437.005-1.982z"/></g><defs><clipPath id="a"><path fill="#fff" d="M0 0h21v21H0z"/></clipPath></defs></svg>