<svg width="180" height="200" fill="none" xmlns="http://www.w3.org/2000/svg"><path d="M90.166 200c3.281 0 7.207-.605 11.777-1.816 15.43-5.782 23.145-16.914 23.145-33.399v-47.168c0-.898-.059-1.68-.176-2.344a.62.62 0 0 0-.029-.234 3.11 3.11 0 0 0-.147-.234c-1.601-4.024-4.14-6.035-7.617-6.035h-.469l-.996.058h-.527c-.117 0-.254.059-.41.176-4.024 1.562-6.035 4.863-6.035 9.902v48.34c0 2.617-.664 5.176-1.993 7.676-3.75 5.898-9.316 8.848-16.699 8.848-5.586 0-10.312-1.739-14.18-5.215-3.163-2.578-4.785-7.325-4.863-14.239l-.117-47.519c0-.43-.039-.879-.117-1.348 0-.156-.01-.263-.03-.322-.019-.059-.087-.166-.205-.322-1.64-4.102-4.238-6.153-7.792-6.153-1.133.118-1.895.254-2.286.41-3.906 1.563-5.859 4.2-5.859 7.911l.176 49.277c.039 7.344 2.07 13.965 6.093 19.863C68.31 195.371 78.018 200 89.933 200h.234z" fill="#5351FB"/><path fill-rule="evenodd" clip-rule="evenodd" d="M34.027 78.24c-8.952 0-14.437 2.617-17.924 6.732A8 8 0 0 1 3.898 74.626c7.316-8.631 17.85-12.386 30.129-12.386 10.32 0 19.777 2.62 28.171 7.9 8.697-5.154 17.86-7.9 27.405-7.9 9.333 0 18.144 2.627 26.335 7.625 7.31-4.922 16.085-7.184 25.862-7.184 12.263 0 23.065 3.55 31.842 11.028a8 8 0 0 1-10.375 12.18c-5.494-4.68-12.463-7.208-21.467-7.208-8.505 0-14.619 2.25-19.086 6.106a10 10 0 0 1-12.353.563l-.141-.1c-6.763-4.802-13.586-7.01-20.617-7.01-7.158 0-14.426 2.291-21.927 7.366a10.001 10.001 0 0 1-11.577-.26l-.248-.185c-6.277-4.596-13.456-6.921-21.824-6.921z" fill="#5351FB"/><path fill-rule="evenodd" clip-rule="evenodd" d="M133.969 32.91c-11.667-10.118-26.708-15.259-45.814-14.892-19.195.37-34.103 5.886-45.416 16.006-11.41 10.207-19.919 25.774-24.944 47.572a8 8 0 1 1-15.59-3.594C7.718 54.077 17.48 35.153 32.07 22.1 46.758 8.96 65.581 2.449 87.847 2.02c22.356-.43 41.454 5.662 56.605 18.803 15.019 13.026 25.406 32.326 31.75 56.982a8 8 0 1 1-15.495 3.987c-5.831-22.661-14.94-38.65-26.738-48.882z" fill="#5351FB"/></svg>