<svg width="18" height="18" fill="none" xmlns="http://www.w3.org/2000/svg"><path d="M10.125 0h-2.25v2.25h2.25V0zm5.955 3.433-1.59-1.592-1.591 1.59 1.59 1.593 1.592-1.591zM18 7.875h-2.25v2.25H18v-2.25zm-5.023 6.772 1.592 1.59 1.59-1.591-1.591-1.59-1.59 1.59zm-2.852 1.103h-2.25V18h2.25v-2.25zm-8.363-1.183 1.59 1.592 1.592-1.59-1.59-1.592-1.592 1.59zm.488-6.692H0v2.25h2.25v-2.25zM5.023 3.51 3.43 1.92 1.84 3.512l1.591 1.59 1.59-1.592z" fill="#7D8FFF"/><path d="M9 4.5A4.513 4.513 0 0 0 4.5 9c0 2.475 2.025 4.5 4.5 4.5s4.5-2.025 4.5-4.5S11.475 4.5 9 4.5z" fill="#546BFB"/></svg>