<svg width="68" height="68" fill="none" xmlns="http://www.w3.org/2000/svg"><path fill="url(#a)" d="M0 0h68v68H0z"/><rect x="4" y="5" width="59" height="59" rx="10" fill="url(#b)"/><g clip-path="url(#c)" fill="#fff"><path d="M33.828 54.56c.656 0 1.441-.121 2.355-.364 3.085-1.16 4.627-3.393 4.627-6.7v-9.462c0-.18-.011-.337-.035-.47a.123.123 0 0 0-.005-.047.557.557 0 0 0-.03-.047c-.32-.807-.828-1.21-1.523-1.21h-.093l-.2.011h-.105c-.024 0-.05.012-.082.035-.805.314-1.207.976-1.207 1.987v9.697c0 .525-.133 1.038-.398 1.54-.75 1.183-1.863 1.774-3.339 1.774-1.117 0-2.062-.348-2.835-1.046-.633-.517-.957-1.469-.973-2.856l-.023-9.532c0-.087-.008-.177-.023-.27a.237.237 0 0 0-.006-.065.306.306 0 0 0-.041-.065c-.328-.823-.848-1.234-1.558-1.234a2.006 2.006 0 0 0-.457.082c-.781.314-1.172.843-1.172 1.587l.035 9.885c.008 1.473.414 2.801 1.219 3.985 1.5 1.857 3.44 2.785 5.822 2.785h.047z"/><path fill-rule="evenodd" clip-rule="evenodd" d="M22.603 30.135c-1.79 0-2.886.525-3.584 1.35-.57.676-1.58.76-2.254.187a1.608 1.608 0 0 1-.186-2.262c1.463-1.731 3.569-2.485 6.024-2.485 2.064 0 3.955.526 5.633 1.585 1.739-1.034 3.57-1.585 5.48-1.585 1.865 0 3.627.527 5.265 1.53 1.462-.987 3.216-1.441 5.171-1.441 2.452 0 4.612.712 6.367 2.212.672.575.753 1.588.18 2.262a1.596 1.596 0 0 1-2.255.181c-1.098-.939-2.492-1.446-4.292-1.446-1.7 0-2.923.452-3.816 1.225a1.995 1.995 0 0 1-2.47.113l-.028-.02c-1.352-.963-2.717-1.406-4.123-1.406-1.43 0-2.884.46-4.384 1.478a1.994 1.994 0 0 1-2.314-.053l-.05-.037c-1.255-.922-2.69-1.388-4.364-1.388z"/><path fill-rule="evenodd" clip-rule="evenodd" d="M42.586 21.042c-2.333-2.03-5.34-3.061-9.16-2.987-3.838.074-6.819 1.18-9.08 3.21-2.282 2.048-3.983 5.17-4.988 9.543a1.6 1.6 0 1 1-3.118-.72c1.103-4.8 3.055-8.596 5.972-11.215 2.937-2.635 6.7-3.942 11.152-4.027 4.47-.087 8.289 1.135 11.318 3.771 3.003 2.613 5.08 6.485 6.348 11.43a1.599 1.599 0 1 1-3.098.8c-1.166-4.545-2.987-7.752-5.346-9.805z"/></g><defs><linearGradient id="a" x1="0" y1="0" x2="68" y2="68" gradientUnits="userSpaceOnUse"><stop stop-color="#fff"/></linearGradient><linearGradient id="b" x1="4" y1="5" x2="63" y2="64" gradientUnits="userSpaceOnUse"><stop stop-color="#9289F4"/><stop offset="1" stop-color="#5351FB"/></linearGradient><clipPath id="c"><path d="M15.8 14.44h35.99v40.12H15.8V14.44z" fill="#fff"/></clipPath></defs></svg>